PathFileType	4	(X/Y/Z)	C:/Users/beibeiliu/ov580/test_trc/User3\sequence.15_training_dense_left.trc
DataRate	CameraRate	NumFrames	NumMarkers	Units	OrigDataRate	OrigDataStartFrame	OrigNumFrames
120	120	17	19	mm	120	33	64
Frame#	Time	ThumbCMC			ThumbMCP			ThumbIP			ThumbTip			IndexMCP			IndexPIP			IndexTip			MiddleMCP			MiddlePIP			MiddleTip			RingMCP			RingPIP			RingTip			PinkyMCP			PinkyPIP			PinkyTip			BackHand1			BackHand2			BackHand3	
		X0	Y0	Z0	X1	Y1	Z1	X2	Y2	Z2	X3	Y3	Z3	X4	Y4	Z4	X5	Y5	Z5	X6	Y6	Z6	X7	Y7	Z7	X8	Y8	Z8	X9	Y9	Z9	X10	Y10	Z10	X11	Y11	Z11	X12	Y12	Z12	X13	Y13	Z13	X14	Y14	Z14	X15	Y15	Z15	X16	Y16	Z16	X17	Y17	Z17	X18	Y18	Z18	
32	0.266667	-232.336	-45.3418	1.58897	-221.8	-29.7613	-31.5911	-205.377	-27.0576	-59.135	-183.534	-35.7761	-71.8759	-239.931	-90.1993	-55.8705	-237.109	-85.3429	-86.8559	-231.456	-72.9505	-111.041	-217.723	-107.119	-56.0577	-219.446	-112.265	-86.354	-219.383	-104.733	-119.395	-196.772	-98.9671	-54.5574	-189.549	-91.8203	-81.5506	-184.857	-65.4732	-98.1837	-171.104	-83.6574	-45.4896	-173.641	-62.068	-62.949	-181.539	-34.8088	-51.8667	-196.598	-99.5252	-0.0344865	-196.166	-85.5911	30.1678	-225.011	-84.5056	12.3687	
33	0.275	-241.621	-44.1109	4.58235	-227.834	-39.6121	-33.6166	-212.679	-48.647	-62.872	-196.956	-60.3348	-72.6381	-261.022	-98.1041	-44.328	-262.125	-99.3562	-74.4264	-257.028	-90.736	-101.03	-252.017	-118.435	-43.6752	-256.166	-126.626	-70.3608	-256.674	-124.32	-102.38	-226.803	-115.727	-45.5584	-220.591	-113.624	-71.7439	-209.251	-90.9597	-93.2327	-197.759	-107.886	-42.095	-195.461	-89.4196	-59.5612	-189.055	-62.263	-59.9988	-223.866	-106.603	10.4792	-214.834	-93.754	34.995	-244.964	-85.8374	21.7124	
34	0.283333	-244.412	-41.5334	6.11495	-231.919	-41.1532	-33.1108	-222.242	-56.0935	-58.3626	-210.758	-77.3462	-69.8388	-284.441	-89.4358	-34.6239	-286.345	-94.1697	-68.4679	-282.19	-92.2647	-90.1338	-280.929	-114.077	-31.9237	-288.332	-123.99	-59.861	-289.183	-123.681	-94.4652	-252.797	-119.811	-33.6814	-252.073	-118.719	-65.4278	-234.108	-102.615	-86.8385	-223.77	-116.919	-29.218	-217.55	-102.724	-55.7836	-207.924	-77.3029	-60.2997	-244.213	-103.692	18.6033	-227.971	-89.8697	43.7752	-257.457	-77.5884	27.5529	
35	0.291667	-244.157	-31.8117	6.14432	-237.759	-41.9414	-34.3733	-232.237	-58.9277	-56.4551	-225.148	-82.3228	-66.884	-300.342	-72.5623	-30.067	-306.363	-74.317	-62.8005	-301.513	-76.2612	-84.5432	-298.84	-101.316	-24.179	-313.028	-105.328	-50.7468	-317.739	-107.63	-83.3218	-274.289	-110.819	-27.5443	-274.343	-112.054	-59.7913	-257.211	-100.607	-80.0026	-248.056	-114.538	-29.6192	-238.307	-103.47	-53.0588	-221.024	-86.5245	-59.3598	-258.847	-97.112	22.6693	-239.171	-85.2038	46.0664	-262.978	-62.7563	30.8183	
36	0.3	-238.265	-21.3691	5.95143	-236.567	-33.6726	-32.941	-236.806	-51.0659	-56.0521	-237.175	-74.9883	-72.0843	-302.259	-49.5455	-27.8944	-310.491	-50.1027	-54.3109	-307.211	-52.4011	-81.9296	-308.621	-70.8523	-18.8209	-325.914	-71.7245	-43.0563	-331.671	-78.1917	-75.9376	-288.597	-88.135	-22.9853	-292.242	-90.4561	-52.5265	-269.432	-82.0785	-79.5081	-266.234	-97.1452	-27.1407	-256.963	-91.7759	-49.8942	-232.072	-81.3032	-60.7597	-264.423	-81.2416	25.8848	-246.355	-73.542	46.1454	-263.144	-46.3996	31.8522	
37	0.308333	-222.786	-12.3491	5.3375	-225.097	-20.7397	-33.7846	-230.132	-35.5373	-56.7271	-239.324	-56.22	-73.2865	-291.924	-12.8968	-32.1025	-297.815	-9.4912	-59.0965	-292.816	-9.31553	-85.555	-302.493	-32.9289	-19.6453	-320.839	-27.4994	-45.2205	-327.168	-28.4825	-77.4299	-291.87	-54.6682	-25.3042	-294.27	-51.288	-58.6442	-270.415	-57.2089	-82.0051	-274.032	-72.9232	-24.521	-264.169	-71.3022	-51.6496	-242.286	-65.2132	-63.667	-264.821	-52.8994	24.9542	-246.298	-60.7126	45.3583	-254.59	-21.6742	30.2907	
38	0.316667	-198.808	-9.24808	6.90555	-198.001	-12.1337	-34.1274	-212.426	-20.8218	-60.8561	-228.466	-36.1383	-71.0615	-255.179	23.8081	-29.5534	-257.867	33.4126	-60.9433	-255.923	27.441	-87.4382	-273.963	14.7078	-22.6754	-289.373	25.3605	-49.2929	-294.853	29.195	-84.3037	-274.861	-9.36526	-31.1039	-276.858	-8.24683	-61.5415	-258.446	-19.7952	-84.4215	-266.176	-35.147	-32.5026	-257.614	-39.9136	-56.8309	-230.764	-49.4939	-69.5259	-255.894	-29.4345	19.4846	-239.711	-37.7747	40.8187	-231.194	-3.19304	30.1039	
39	0.325	-175.696	-15.6721	5.55626	-175.842	-17.6521	-31.2655	-192.177	-17.3647	-63.0432	-216.617	-23.0653	-76.3835	-211.482	41.2068	-36.4271	-209.664	49.6415	-60.1434	-205.593	45.0966	-91.0302	-236.617	39.8086	-28.8375	-240.316	56.5975	-54.2631	-242.509	63.4451	-82.701	-241.038	18.1055	-34.947	-241.865	19.3736	-66.7428	-229.966	-0.0340119	-90.8419	-245.901	-8.13281	-39.5892	-236.318	-16.4792	-62.3028	-217.442	-37.4183	-69.8601	-234.504	-5.36135	16.2112	-228.221	-25.8108	35.7382	-201.204	1.84574	27.7264	
40	0.333333	-154.502	-28.367	-0.155005	-158.751	-30.7711	-37.1693	-173.03	-29.086	-66.1805	-197.363	-29.8946	-79.7734	-179.104	33.3804	-43.9132	-173.029	38.2072	-70.7788	-173.105	31.8257	-96.9576	-201.96	37.9099	-37.5581	-201.518	53.6398	-61.8687	-196.766	62.0076	-94.4455	-216.697	19.0006	-42.6392	-214.367	20.8879	-72.9579	-204.051	-3.46149	-95.6332	-224.865	-4.86828	-41.9287	-219.873	-18.453	-66.608	-203.457	-41.8856	-70.9354	-218.056	-1.49762	7.07548	-212.948	-21.5387	31.8693	-183.272	-2.76962	22.2229	
41	0.341667	-144.336	-43.9197	-0.23502	-148.021	-55.7635	-34.2015	-164.137	-57.2401	-68.285	-189.143	-55.4562	-76.3988	-158.88	8.15204	-54.2105	-154.74	8.79991	-81.8637	-155.506	-3.58483	-107.128	-184.522	18.5626	-53.147	-181.393	28.7089	-80.2201	-182.09	28.7146	-113.176	-202.775	0.800334	-52.8005	-197.494	-3.15502	-83.2259	-190.513	-30.384	-99.6917	-216.215	-23.5314	-51.7596	-206.972	-43.0984	-69.5941	-194.53	-70.7553	-61.1949	-202.335	-10.4905	-0.0577406	-199.373	-24.9875	26.3997	-167.858	-13.302	15.4774	
42	0.35	-139.57	-59.0099	-1.91303	-138.159	-81.2089	-32.5668	-159.652	-87.7763	-58.7016	-180.9	-90.3278	-67.0224	-145.435	-21.0238	-65.2108	-142.354	-31.7736	-95.5188	-140.897	-51.5685	-116.672	-172.473	-11.4667	-69.7153	-171.584	-10.0162	-98.0175	-165.659	-18.8132	-131.582	-192.011	-27.4188	-63.0704	-192.2	-41.7104	-92.1979	-183.002	-70.5365	-99.4462	-206.816	-50.7553	-55.41	-197.011	-74.8526	-66.3828	-184.474	-95.32	-49.7458	-192.159	-24.1162	-6.93803	-192.463	-31.9353	21.2173	-160.038	-24.3592	6.79071	
43	0.358333	-133.076	-66.0164	1.98517	-135.522	-93.5499	-23.3896	-148.055	-111.148	-44.8893	-175.567	-116.835	-57.3714	-144.78	-44.4619	-71.8216	-133.9	-56.371	-94.7263	-132.784	-78.1233	-111.72	-169.714	-35.9733	-72.2791	-163.203	-39.2022	-105.743	-161.685	-55.3676	-131.921	-184.934	-52.0914	-69.9739	-184.105	-69.767	-91.1185	-177.743	-103.699	-91.0935	-196.53	-73.7246	-55.2408	-189.334	-99.2609	-57.7332	-176.616	-114.32	-38.7147	-187.229	-34.717	-16.0324	-192.361	-36.529	16.416	-155.038	-30.6815	1.54462	
44	0.366667	-134.129	-65.7704	8.42191	-125.68	-101.513	-11.6467	-135.947	-126.475	-34.3074	-160.888	-132.808	-39.8116	-139.172	-59.5817	-67.8692	-130.515	-74.2849	-90.066	-124.068	-99.3903	-105.39	-165.032	-55.6187	-71.1392	-162.981	-64.8059	-100.263	-154.192	-85.6303	-127.599	-181.976	-75.9548	-67.5606	-176.705	-96.5426	-83.8583	-164.675	-128.275	-76.0772	-191.882	-92.8438	-45.2031	-176.882	-120.529	-42.9429	-159.07	-125.189	-20.4462	-188.323	-48.5305	-15.4119	-188.645	-42.7768	13.2554	-156.584	-34.3899	-4.82461	
45	0.375	-132.045	-58.6691	8.71805	-117.142	-94.0146	-4.76931	-119.867	-120.116	-16.1011	-134.702	-138.507	-22.8711	-138.174	-64.7183	-66.9512	-122.959	-80.4802	-86.8627	-110.9	-100.776	-98.6684	-164.427	-70.8268	-72.6198	-159.141	-86.7609	-99.6029	-145.528	-104.368	-119.623	-172.531	-89.3447	-60.4097	-162.153	-112.89	-74.2769	-140.306	-139.196	-61.4991	-177.588	-112.572	-38.4712	-159.419	-130.168	-29.9808	-141.887	-127.686	-9.32023	-193.46	-62.6018	-14.0554	-194.68	-49.1211	14.0119	-165.434	-37.4327	-4.7253	
46	0.383333	-136.056	-43.9327	4.70586	-109.052	-72.7242	-0.642938	-102.946	-100.845	-10.5402	-116.62	-125.611	-14.4204	-140.657	-60.3161	-66.1822	-124.031	-72.1349	-84.7194	-105.023	-90.5634	-95.4997	-161.961	-75.3595	-70.8767	-149.764	-90.7055	-97.2523	-132.085	-108.22	-113.124	-166.611	-100.114	-53.5768	-143.674	-115.835	-67.7761	-118.966	-131.953	-53.9012	-159.539	-116.654	-31.1221	-137.895	-123.194	-24.6319	-124.243	-112.234	-1.22005	-190.541	-69.5358	-15.5889	-198.932	-58.8894	14.3598	-174.871	-37.4926	-8.29727	
47	0.391667	-147.087	-26.6651	3.28265	-116.058	-48.3064	-2.26343	-92.0999	-70.8909	-12.0805	-92.354	-97.5691	-12.3069	-144.423	-51.5916	-70.4731	-125.72	-54.6849	-85.7439	-101.319	-63.3848	-98.487	-160.978	-73.5335	-67.1443	-145.453	-86.2089	-93.2039	-119.107	-94.2442	-112.243	-152.101	-95.631	-53.9604	-127.86	-102.937	-64.167	-97.1277	-106.517	-51.1485	-144.837	-103.404	-26.8979	-117.868	-102.004	-17.9688	-112.524	-82.8168	3.96283	-187.871	-73.4207	-10.9717	-200.097	-62.6203	10.0415	-187.31	-36.8991	-11.6271	
48	0.4	-166.816	-13.7349	0.497199	-128.438	-20.5837	-7.31569	-97.9023	-33.0932	-17.8885	-91.7002	-60.725	-16.9337	-156.739	-41.0408	-72.5721	-135.96	-41.2002	-91.5476	-112.227	-40.1001	-103.588	-160.806	-68.3609	-68.3035	-143.211	-70.3759	-96.9119	-115.213	-70.7485	-116.422	-147.461	-78.9889	-52.3874	-117.175	-84.5055	-64.4909	-89.9024	-67.023	-55.6295	-129.894	-86.5254	-28.2071	-108.556	-70.0846	-20.3324	-110.445	-53.6497	-0.943043	-185.335	-75.1449	-10.9199	-196.922	-68.2077	10.8257	-197.599	-43.063	-10.626	
